<svg xmlns="http://www.w3.org/2000/svg" viewBox="0 0 1200 1200" width="1200" height="1200" role="img">
  <rect width="1200" height="1200" fill="#f4efe6"/>
  <ellipse cx="600" cy="950" rx="420" ry="30" fill="#16233a" opacity="0.12"/>
  <rect x="120" y="300" width="420" height="600" rx="46" fill="#3f4247"/>
  <rect x="146" y="326" width="368" height="548" rx="30" fill="#ebe3d6"/>
  <rect x="186" y="440" width="316" height="26" rx="13" fill="#6b4a2f" opacity="0.9"/>
  <rect x="186" y="700" width="316" height="26" rx="13" fill="#6b4a2f" opacity="0.9"/>
  <rect x="326" y="380" width="26" height="440" rx="13" fill="#6b4a2f" opacity="0.55"/>
  <rect x="306" y="560" width="66" height="46" rx="10" fill="#a8853f"/>
  <rect x="660" y="300" width="420" height="600" rx="46" fill="#3f4247"/>
  <rect x="686" y="326" width="368" height="548" rx="30" fill="#ebe3d6"/>
  <rect x="726" y="400" width="316" height="440" rx="18" fill="none" stroke="#16233a" stroke-width="5" opacity="0.5"/>
  <line x1="732" y1="430" x2="1036" y2="430" stroke="#16233a" stroke-width="3" opacity="0.28"/>
  <line x1="732" y1="482" x2="1036" y2="482" stroke="#16233a" stroke-width="3" opacity="0.28"/>
  <line x1="732" y1="534" x2="1036" y2="534" stroke="#16233a" stroke-width="3" opacity="0.28"/>
  <line x1="732" y1="586" x2="1036" y2="586" stroke="#16233a" stroke-width="3" opacity="0.28"/>
  <line x1="732" y1="638" x2="1036" y2="638" stroke="#16233a" stroke-width="3" opacity="0.28"/>
  <line x1="732" y1="690" x2="1036" y2="690" stroke="#16233a" stroke-width="3" opacity="0.28"/>
  <line x1="732" y1="742" x2="1036" y2="742" stroke="#16233a" stroke-width="3" opacity="0.28"/>
  <line x1="732" y1="794" x2="1036" y2="794" stroke="#16233a" stroke-width="3" opacity="0.28"/>
  <line x1="746" y1="405" x2="746" y2="835" stroke="#16233a" stroke-width="3" opacity="0.28"/>
  <line x1="798" y1="405" x2="798" y2="835" stroke="#16233a" stroke-width="3" opacity="0.28"/>
  <line x1="850" y1="405" x2="850" y2="835" stroke="#16233a" stroke-width="3" opacity="0.28"/>
  <line x1="902" y1="405" x2="902" y2="835" stroke="#16233a" stroke-width="3" opacity="0.28"/>
  <line x1="954" y1="405" x2="954" y2="835" stroke="#16233a" stroke-width="3" opacity="0.28"/>
  <line x1="1006" y1="405" x2="1006" y2="835" stroke="#16233a" stroke-width="3" opacity="0.28"/>
  <rect x="588" y="330" width="24" height="540" rx="12" fill="#090c11"/>
</svg>
