<svg xmlns="http://www.w3.org/2000/svg" viewBox="0 0 1200 1200" width="1200" height="1200" role="img">
  <rect width="1200" height="1200" fill="#f4efe6"/>
  <path d="M120 180 q480 120 960 -40" stroke="#16233a" stroke-width="6" fill="none" opacity="0.4"/>
  <g transform="translate(200 260) rotate(-8)">
    <path d="M0 0 h180 a16 16 0 0 1 16 16 v240 a16 16 0 0 1-16 16 H0 a16 16 0 0 1-16-16 V16 A16 16 0 0 1 0 0 z" fill="#6b4a2f"/>
    <circle cx="90" cy="40" r="16" fill="#ebe3d6"/>
    <path d="M28 110 h124 M28 160 h124 M28 210 h84" stroke="#ebe3d6" stroke-width="8" stroke-linecap="round" opacity="0.7"/>
  </g>
  <g transform="translate(500 300) rotate(4)">
    <path d="M0 0 h180 a16 16 0 0 1 16 16 v240 a16 16 0 0 1-16 16 H0 a16 16 0 0 1-16-16 V16 A16 16 0 0 1 0 0 z" fill="#937257"/>
    <circle cx="90" cy="40" r="16" fill="#ebe3d6"/>
    <path d="M28 110 h124 M28 160 h124 M28 210 h84" stroke="#ebe3d6" stroke-width="8" stroke-linecap="round" opacity="0.7"/>
  </g>
  <g transform="translate(800 250) rotate(-3)">
    <path d="M0 0 h180 a16 16 0 0 1 16 16 v240 a16 16 0 0 1-16 16 H0 a16 16 0 0 1-16-16 V16 A16 16 0 0 1 0 0 z" fill="#1b2a41"/>
    <circle cx="90" cy="40" r="16" fill="#ebe3d6"/>
    <path d="M28 110 h124 M28 160 h124 M28 210 h84" stroke="#ebe3d6" stroke-width="8" stroke-linecap="round" opacity="0.7"/>
  </g>
  <text x="600" y="820" text-anchor="middle" font-family="Georgia, serif" font-size="34" fill="#16233a" opacity="0.3">Gepäckanhänger aus 27 Jahren</text>
</svg>
